<svg xmlns="http://www.w3.org/2000/svg" viewBox="0 0 540 240" width="100%" height="100%">
  <defs>
    <filter id="shadow" x="-5%" y="-5%" width="110%" height="110%">
      <feDropShadow dx="2" dy="3" stdDeviation="3" flood-color="#1e293b" flood-opacity="0.08" />
    </filter>
  </defs>

  <!-- Background -->
  <rect width="100%" height="100%" fill="#f8fafc" rx="8" />

  <!-- Helper to render vertical code flow block -->
  <!-- Block 1 (Left) -->
  <g transform="translate(15, 15)">
    <!-- 코드1 -->
    <rect x="25" y="5" width="70" height="24" rx="3" fill="#ffffff" stroke="#cbd5e1" stroke-width="1" />
    <text x="60" y="20" font-family="monospace" font-size="9" fill="#475569" text-anchor="middle">코드1</text>
    
    <path d="M 60,29 L 60,40" fill="none" stroke="#64748b" stroke-width="1" />
    <polygon points="58,40 60,44 62,40" fill="#64748b" />

    <!-- Dashed Middle Box -->
    <rect x="10" y="45" width="100" height="120" fill="none" stroke="#64748b" stroke-dasharray="3,2" stroke-width="1.2" />

    <!-- 코드2 -->
    <rect x="25" y="55" width="70" height="22" rx="3" fill="#ffffff" stroke="#cbd5e1" stroke-width="1" />
    <text x="60" y="68" font-family="monospace" font-size="9" fill="#475569" text-anchor="middle">코드2</text>
    
    <path d="M 60,77 L 60,88" fill="none" stroke="#64748b" stroke-width="1" />
    <polygon points="58,88 60,92 62,88" fill="#64748b" />

    <!-- 코드3 -->
    <rect x="25" y="93" width="70" height="22" rx="3" fill="#ffffff" stroke="#cbd5e1" stroke-width="1" />
    <text x="60" y="106" font-family="monospace" font-size="9" fill="#475569" text-anchor="middle">코드3</text>
    
    <path d="M 60,115 L 60,126" fill="none" stroke="#64748b" stroke-width="1" />
    <polygon points="58,126 60,130 62,126" fill="#64748b" />

    <!-- 코드4 -->
    <rect x="25" y="131" width="70" height="22" rx="3" fill="#ffffff" stroke="#cbd5e1" stroke-width="1" />
    <text x="60" y="144" font-family="monospace" font-size="9" fill="#475569" text-anchor="middle">코드4</text>

    <path d="M 60,165 L 60,176" fill="none" stroke="#64748b" stroke-width="1" />
    <polygon points="58,176 60,180 62,176" fill="#64748b" />

    <!-- 코드5 -->
    <rect x="25" y="181" width="70" height="24" rx="3" fill="#ffffff" stroke="#cbd5e1" stroke-width="1" />
    <text x="60" y="196" font-family="monospace" font-size="9" fill="#475569" text-anchor="middle">코드5</text>
  </g>

  <!-- Connective Change indicator 1 -->
  <g transform="translate(135, 110)">
    <path d="M 0,0 L 50,0" fill="none" stroke="#ef4444" stroke-dasharray="3,2" stroke-width="1.2" />
    <polygon points="50,-3 56,0 50,3" fill="#ef4444" />
    <text x="25" y="-12" font-family="'Inter', sans-serif" font-size="8" font-weight="bold" fill="#ef4444" text-anchor="middle">변화</text>
    <text x="25" y="-3" font-family="'Inter', sans-serif" font-size="7" fill="#ef4444" text-anchor="middle">전술 변경</text>
  </g>

  <!-- Block 2 (Middle) -->
  <g transform="translate(195, 15)">
    <!-- 코드1 -->
    <rect x="25" y="5" width="70" height="24" rx="3" fill="#ffffff" stroke="#cbd5e1" stroke-width="1" />
    <text x="60" y="20" font-family="monospace" font-size="9" fill="#475569" text-anchor="middle">코드1</text>
    
    <path d="M 60,29 L 60,40" fill="none" stroke="#64748b" stroke-width="1" />
    <polygon points="58,40 60,44 62,40" fill="#64748b" />

    <!-- Dashed Middle Box -->
    <rect x="10" y="45" width="100" height="120" fill="none" stroke="#ef4444" stroke-width="1.2" />

    <!-- 코드2 -->
    <rect x="25" y="55" width="70" height="22" rx="3" fill="#ffffff" stroke="#cbd5e1" stroke-width="1" />
    <text x="60" y="68" font-family="monospace" font-size="9" fill="#475569" text-anchor="middle">코드2</text>
    
    <path d="M 60,77 L 60,88" fill="none" stroke="#64748b" stroke-width="1" />
    <polygon points="58,88 60,92 62,88" fill="#64748b" />

    <!-- 코드3 (Highlighted Change) -->
    <rect x="25" y="93" width="70" height="22" rx="3" fill="#fee2e2" stroke="#ef4444" stroke-width="1.2" />
    <text x="60" y="106" font-family="monospace" font-size="9" font-weight="bold" fill="#991b1b" text-anchor="middle">코드3 *</text>
    
    <path d="M 60,115 L 60,126" fill="none" stroke="#ef4444" stroke-width="1" />
    <polygon points="58,126 60,130 62,126" fill="#ef4444" />

    <!-- 코드4 -->
    <rect x="25" y="131" width="70" height="22" rx="3" fill="#ffffff" stroke="#cbd5e1" stroke-width="1" />
    <text x="60" y="144" font-family="monospace" font-size="9" fill="#475569" text-anchor="middle">코드4</text>

    <path d="M 60,165 L 60,176" fill="none" stroke="#64748b" stroke-width="1" />
    <polygon points="58,176 60,180 62,176" fill="#64748b" />

    <!-- 코드5 -->
    <rect x="25" y="181" width="70" height="24" rx="3" fill="#ffffff" stroke="#cbd5e1" stroke-width="1" />
    <text x="60" y="196" font-family="monospace" font-size="9" fill="#475569" text-anchor="middle">코드5</text>
  </g>

  <!-- Connective Change indicator 2 -->
  <g transform="translate(315, 110)">
    <path d="M 0,0 L 50,0" fill="none" stroke="#ef4444" stroke-dasharray="3,2" stroke-width="1.2" />
    <polygon points="50,-3 56,0 50,3" fill="#ef4444" />
    <text x="25" y="-12" font-family="'Inter', sans-serif" font-size="8" font-weight="bold" fill="#ef4444" text-anchor="middle">변화</text>
    <text x="25" y="-3" font-family="'Inter', sans-serif" font-size="7" fill="#ef4444" text-anchor="middle">전술 변경</text>
  </g>

  <!-- Block 3 (Right) -->
  <g transform="translate(375, 15)">
    <!-- 코드1 -->
    <rect x="25" y="5" width="70" height="24" rx="3" fill="#ffffff" stroke="#cbd5e1" stroke-width="1" />
    <text x="60" y="20" font-family="monospace" font-size="9" fill="#475569" text-anchor="middle">코드1</text>
    
    <path d="M 60,29 L 60,40" fill="none" stroke="#64748b" stroke-width="1" />
    <polygon points="58,40 60,44 62,40" fill="#64748b" />

    <!-- Dashed Middle Box -->
    <rect x="10" y="45" width="100" height="120" fill="none" stroke="#ef4444" stroke-width="1.2" />

    <!-- 코드2 -->
    <rect x="25" y="55" width="70" height="22" rx="3" fill="#ffffff" stroke="#cbd5e1" stroke-width="1" />
    <text x="60" y="68" font-family="monospace" font-size="9" fill="#475569" text-anchor="middle">코드2</text>
    
    <path d="M 60,77 L 60,88" fill="none" stroke="#64748b" stroke-width="1" />
    <polygon points="58,88 60,92 62,88" fill="#64748b" />

    <!-- 코드3 (Highlighted Change again) -->
    <rect x="25" y="93" width="70" height="22" rx="3" fill="#fee2e2" stroke="#ef4444" stroke-width="1.2" />
    <text x="60" y="106" font-family="monospace" font-size="9" font-weight="bold" fill="#991b1b" text-anchor="middle">코드3 **</text>
    
    <path d="M 60,115 L 60,126" fill="none" stroke="#ef4444" stroke-width="1" />
    <polygon points="58,126 60,130 62,126" fill="#ef4444" />

    <!-- 코드4 -->
    <rect x="25" y="131" width="70" height="22" rx="3" fill="#ffffff" stroke="#cbd5e1" stroke-width="1" />
    <text x="60" y="144" font-family="monospace" font-size="9" fill="#475569" text-anchor="middle">코드4</text>

    <path d="M 60,165 L 60,176" fill="none" stroke="#64748b" stroke-width="1" />
    <polygon points="58,176 60,180 62,176" fill="#64748b" />

    <!-- 코드5 -->
    <rect x="25" y="181" width="70" height="24" rx="3" fill="#ffffff" stroke="#cbd5e1" stroke-width="1" />
    <text x="60" y="196" font-family="monospace" font-size="9" fill="#475569" text-anchor="middle">코드5</text>
  </g>
</svg>
